<?xml version="1.0" encoding="UTF-8"?>
<svg id="_Слой_1" data-name="Слой_1" xmlns="http://www.w3.org/2000/svg" version="1.1" viewBox="0 0 32 32">
  <!-- Generator: Adobe Illustrator 29.2.1, SVG Export Plug-In . SVG Version: 2.1.0 Build 116)  -->
  <defs>
    <style>
      .st0 {
        fill: none;
        stroke: #cc7a8b;
        stroke-miterlimit: 10;
        stroke-width: .5px;
      }

      .st1 {
        fill: #058181;
      }

      .st2 {
        fill: #fff;
      }
    </style>
  </defs>
  <g>
    <circle class="st0" cx="15.83" cy="15.44" r="6.12"/>
    <circle class="st0" cx="15.83" cy="15.44" r="7.33"/>
    <circle class="st0" cx="15.83" cy="15.44" r="8.53"/>
    <circle class="st0" cx="15.83" cy="15.44" r="9.73"/>
    <circle class="st0" cx="15.83" cy="15.44" r="10.94"/>
    <circle class="st0" cx="15.83" cy="15.44" r="12.14"/>
    <circle class="st0" cx="15.83" cy="15.44" r="13.35"/>
  </g>
  <path class="st1" d="M15.72,15.39l10.21-8.97c-2.5-2.82-6.14-4.6-10.21-4.6C8.2,1.82,2.1,7.92,2.1,15.44s6.1,13.62,13.62,13.62c4.41,0,8.33-2.09,10.82-5.34l-10.82-8.33Z"/>
  <path class="st2" d="M13.18,26.68s.37-1.31.82-2.83c.45-1.51.81-2.76.78-2.77-.02-.01-.37-.12-.79-.24-3.13-.9-4.87-4.36-3.83-7.64.42-1.33,2.15-3.1,3.46-3.54,1.19-.4,3.1-.4,4.25.01,1.24.44,2.56,1.68,3.18,2.96.44.91.51,1.29.52,2.82.01,1.7-.01,1.82-.72,3.23-.61,1.22-1.12,1.85-3.05,3.78-2.11,2.11-4.62,4.39-4.62,4.19"/>
  <rect class="st2" x="18.81" y="8.27" width="8.32" height=".91" transform="translate(.08 17.67) rotate(-42.14)"/>
  <rect class="st2" x="19.53" y="21.13" width="8.32" height=".91" transform="translate(26.77 53.47) rotate(-137.86)"/>
</svg>